STARTFONT 2.1
FONT -FontForge-Everyday_Vast_Bold-Book-R-Normal--11-110-75-75-P-82-ISO10646-1
SIZE 11 75 75
FONTBOUNDINGBOX 14 17 0 -2
COMMENT "Generated by fontforge, http://fontforge.sourceforge.net"
STARTPROPERTIES 38
FOUNDRY "FontForge"
FAMILY_NAME "Everyday_Vast_Bold"
WEIGHT_NAME "Book"
SLANT "R"
SETWIDTH_NAME "Normal"
ADD_STYLE_NAME ""
PIXEL_SIZE 11
POINT_SIZE 110
RESOLUTION_X 75
RESOLUTION_Y 75
SPACING "P"
AVERAGE_WIDTH 82
CHARSET_REGISTRY "ISO10646"
CHARSET_ENCODING "1"
FONTNAME_REGISTRY ""
CHARSET_COLLECTIONS "ISO10646-1"
FONT_NAME "Everyday_Vast_Bold"
FACE_NAME "Everyday_Vast_Bold Regular"
FONT_VERSION "1.0"
FONT_ASCENT 8
FONT_DESCENT 3
UNDERLINE_POSITION 1
UNDERLINE_THICKNESS 1
X_HEIGHT 8
CAP_HEIGHT 10
RAW_ASCENT 799
RAW_DESCENT 200
NORM_SPACE 8
RELATIVE_WEIGHT 40
RELATIVE_SETWIDTH 50
SUPERSCRIPT_X 0
SUPERSCRIPT_Y 5
SUPERSCRIPT_SIZE 5
SUBSCRIPT_X 0
SUBSCRIPT_Y -2
SUBSCRIPT_SIZE 5
AVG_LOWERCASE_WIDTH 80
AVG_UPPERCASE_WIDTH 94
ENDPROPERTIES
CHARS 165
STARTCHAR uni000D
ENCODING 13
SWIDTH 90 0
DWIDTH 1 0
BBX 1 1 0 0
BITMAP
00
ENDCHAR
STARTCHAR space
ENCODING 32
SWIDTH 727 0
DWIDTH 8 0
BBX 1 1 0 0
BITMAP
00
ENDCHAR
STARTCHAR exclam
ENCODING 33
SWIDTH 272 0
DWIDTH 3 0
BBX 2 11 0 0
BITMAP
C0
C0
C0
C0
C0
C0
C0
C0
00
C0
C0
ENDCHAR
STARTCHAR quotedbl
ENCODING 34
SWIDTH 636 0
DWIDTH 7 0
BBX 6 3 0 8
BITMAP
6C
6C
D8
ENDCHAR
STARTCHAR numbersign
ENCODING 35
SWIDTH 1000 0
DWIDTH 11 0
BBX 10 9 0 0
BITMAP
3100
3100
FFC0
3100
3100
3100
FFC0
3100
3100
ENDCHAR
STARTCHAR dollar
ENCODING 36
SWIDTH 727 0
DWIDTH 8 0
BBX 7 11 0 0
BITMAP
10
7C
D6
D0
50
38
14
16
D6
7C
10
ENDCHAR
STARTCHAR percent
ENCODING 37
SWIDTH 1090 0
DWIDTH 12 0
BBX 11 11 0 0
BITMAP
6060
D0E0
D1C0
6380
0700
0E00
1C00
38C0
71A0
E1A0
C0C0
ENDCHAR
STARTCHAR ampersand
ENCODING 38
SWIDTH 1000 0
DWIDTH 11 0
BBX 10 11 0 0
BITMAP
3800
6400
6400
6800
3000
6800
C400
C240
C140
6080
3F40
ENDCHAR
STARTCHAR quotesingle
ENCODING 39
SWIDTH 363 0
DWIDTH 4 0
BBX 3 3 0 8
BITMAP
60
60
C0
ENDCHAR
STARTCHAR parenleft
ENCODING 40
SWIDTH 454 0
DWIDTH 5 0
BBX 4 15 0 -2
BITMAP
30
60
60
C0
C0
C0
C0
C0
C0
C0
C0
C0
60
60
30
ENDCHAR
STARTCHAR parenright
ENCODING 41
SWIDTH 454 0
DWIDTH 5 0
BBX 4 15 0 -2
BITMAP
C0
60
60
30
30
30
30
30
30
30
30
30
60
60
C0
ENDCHAR
STARTCHAR asterisk
ENCODING 42
SWIDTH 818 0
DWIDTH 9 0
BBX 8 7 0 1
BITMAP
18
99
5A
3C
5A
99
18
ENDCHAR
STARTCHAR plus
ENCODING 43
SWIDTH 818 0
DWIDTH 9 0
BBX 8 7 0 1
BITMAP
18
18
18
FF
18
18
18
ENDCHAR
STARTCHAR comma
ENCODING 44
SWIDTH 363 0
DWIDTH 4 0
BBX 3 3 0 -1
BITMAP
60
60
C0
ENDCHAR
STARTCHAR hyphen
ENCODING 45
SWIDTH 727 0
DWIDTH 8 0
BBX 7 1 0 3
BITMAP
FE
ENDCHAR
STARTCHAR period
ENCODING 46
SWIDTH 272 0
DWIDTH 3 0
BBX 2 2 0 0
BITMAP
C0
C0
ENDCHAR
STARTCHAR slash
ENCODING 47
SWIDTH 636 0
DWIDTH 7 0
BBX 6 11 0 0
BITMAP
0C
0C
1C
18
38
30
70
60
E0
C0
C0
ENDCHAR
STARTCHAR zero
ENCODING 48
SWIDTH 818 0
DWIDTH 9 0
BBX 8 11 0 0
BITMAP
7E
C1
C1
C1
C1
DD
C1
C1
C1
C1
7E
ENDCHAR
STARTCHAR one
ENCODING 49
SWIDTH 636 0
DWIDTH 7 0
BBX 6 11 0 0
BITMAP
30
F0
30
30
30
30
30
30
30
30
FC
ENDCHAR
STARTCHAR two
ENCODING 50
SWIDTH 818 0
DWIDTH 9 0
BBX 8 11 0 0
BITMAP
7E
C3
03
03
03
7E
C0
C0
C0
C1
FF
ENDCHAR
STARTCHAR three
ENCODING 51
SWIDTH 818 0
DWIDTH 9 0
BBX 8 11 0 0
BITMAP
7E
C3
03
03
03
3E
03
03
03
C3
7E
ENDCHAR
STARTCHAR four
ENCODING 52
SWIDTH 818 0
DWIDTH 9 0
BBX 8 11 0 0
BITMAP
83
83
83
83
83
FF
03
03
03
03
03
ENDCHAR
STARTCHAR five
ENCODING 53
SWIDTH 818 0
DWIDTH 9 0
BBX 8 11 0 0
BITMAP
FF
C1
C0
C0
C0
7E
03
03
03
C3
7E
ENDCHAR
STARTCHAR six
ENCODING 54
SWIDTH 818 0
DWIDTH 9 0
BBX 8 11 0 0
BITMAP
7E
C3
C0
C0
FE
C1
C1
C1
C1
C1
7E
ENDCHAR
STARTCHAR seven
ENCODING 55
SWIDTH 818 0
DWIDTH 9 0
BBX 8 11 0 0
BITMAP
FF
83
03
06
06
0C
0C
18
18
30
30
ENDCHAR
STARTCHAR eight
ENCODING 56
SWIDTH 818 0
DWIDTH 9 0
BBX 8 11 0 0
BITMAP
7E
C1
C1
C1
C1
7E
C1
C1
C1
C1
7E
ENDCHAR
STARTCHAR nine
ENCODING 57
SWIDTH 818 0
DWIDTH 9 0
BBX 8 11 0 0
BITMAP
7E
C1
C1
C1
C1
C1
7F
01
01
C1
7E
ENDCHAR
STARTCHAR colon
ENCODING 58
SWIDTH 272 0
DWIDTH 3 0
BBX 2 8 0 0
BITMAP
C0
C0
00
00
00
00
C0
C0
ENDCHAR
STARTCHAR semicolon
ENCODING 59
SWIDTH 363 0
DWIDTH 4 0
BBX 3 9 0 -1
BITMAP
60
60
00
00
00
00
60
60
C0
ENDCHAR
STARTCHAR less
ENCODING 60
SWIDTH 727 0
DWIDTH 8 0
BBX 7 7 0 1
BITMAP
06
1E
78
E0
78
1E
06
ENDCHAR
STARTCHAR equal
ENCODING 61
SWIDTH 636 0
DWIDTH 7 0
BBX 6 5 0 2
BITMAP
FC
00
00
00
FC
ENDCHAR
STARTCHAR greater
ENCODING 62
SWIDTH 727 0
DWIDTH 8 0
BBX 7 7 0 1
BITMAP
C0
F0
3C
0E
3C
F0
C0
ENDCHAR
STARTCHAR question
ENCODING 63
SWIDTH 727 0
DWIDTH 8 0
BBX 7 11 0 0
BITMAP
78
CC
06
06
06
0C
38
60
00
60
60
ENDCHAR
STARTCHAR at
ENCODING 64
SWIDTH 1000 0
DWIDTH 11 0
BBX 10 11 0 0
BITMAP
3F00
6080
C040
CF40
D940
D940
D940
CF80
C000
6000
3E00
ENDCHAR
STARTCHAR A
ENCODING 65
SWIDTH 818 0
DWIDTH 9 0
BBX 8 11 0 0
BITMAP
18
34
62
62
C1
C1
FF
C1
C1
C1
C1
ENDCHAR
STARTCHAR B
ENCODING 66
SWIDTH 818 0
DWIDTH 9 0
BBX 8 11 0 0
BITMAP
FC
C2
C1
C1
C2
FC
C2
C1
C1
C2
FC
ENDCHAR
STARTCHAR C
ENCODING 67
SWIDTH 909 0
DWIDTH 10 0
BBX 9 11 0 0
BITMAP
3F00
6180
C000
C000
C000
C000
C000
C000
C000
6180
3F00
ENDCHAR
STARTCHAR D
ENCODING 68
SWIDTH 818 0
DWIDTH 9 0
BBX 8 11 0 0
BITMAP
FC
C2
C1
C1
C1
C1
C1
C1
C1
C2
FC
ENDCHAR
STARTCHAR E
ENCODING 69
SWIDTH 818 0
DWIDTH 9 0
BBX 8 11 0 0
BITMAP
FF
C0
C0
C0
C0
FC
C0
C0
C0
C0
FF
ENDCHAR
STARTCHAR F
ENCODING 70
SWIDTH 818 0
DWIDTH 9 0
BBX 8 11 0 0
BITMAP
FF
C0
C0
C0
C0
FC
C0
C0
C0
C0
C0
ENDCHAR
STARTCHAR G
ENCODING 71
SWIDTH 909 0
DWIDTH 10 0
BBX 9 11 0 0
BITMAP
3F00
6180
C000
C000
C000
C780
C080
C080
C080
6080
3F00
ENDCHAR
STARTCHAR H
ENCODING 72
SWIDTH 818 0
DWIDTH 9 0
BBX 8 11 0 0
BITMAP
C1
C1
C1
C1
C1
FF
C1
C1
C1
C1
C1
ENDCHAR
STARTCHAR I
ENCODING 73
SWIDTH 636 0
DWIDTH 7 0
BBX 6 11 0 0
BITMAP
FC
30
30
30
30
30
30
30
30
30
FC
ENDCHAR
STARTCHAR J
ENCODING 74
SWIDTH 818 0
DWIDTH 9 0
BBX 8 11 0 0
BITMAP
3F
03
03
03
03
03
03
03
03
C6
7C
ENDCHAR
STARTCHAR K
ENCODING 75
SWIDTH 818 0
DWIDTH 9 0
BBX 8 11 0 0
BITMAP
C1
C1
C2
C2
C4
F8
C4
C2
C2
C1
C1
ENDCHAR
STARTCHAR L
ENCODING 76
SWIDTH 818 0
DWIDTH 9 0
BBX 8 11 0 0
BITMAP
C0
C0
C0
C0
C0
C0
C0
C0
C0
C0
7F
ENDCHAR
STARTCHAR M
ENCODING 77
SWIDTH 1363 0
DWIDTH 15 0
BBX 14 11 0 0
BITMAP
DC70
E288
C104
C104
C104
C104
C104
C104
C104
C004
C004
ENDCHAR
STARTCHAR N
ENCODING 78
SWIDTH 818 0
DWIDTH 9 0
BBX 8 11 0 0
BITMAP
DC
E2
C1
C1
C1
C1
C1
C1
C1
C1
C1
ENDCHAR
STARTCHAR O
ENCODING 79
SWIDTH 909 0
DWIDTH 10 0
BBX 9 11 0 0
BITMAP
3E00
6100
C080
C080
C080
C080
C080
C080
C080
6100
3E00
ENDCHAR
STARTCHAR P
ENCODING 80
SWIDTH 818 0
DWIDTH 9 0
BBX 8 11 0 0
BITMAP
FC
C2
C1
C1
C1
C2
FC
C0
C0
C0
C0
ENDCHAR
STARTCHAR Q
ENCODING 81
SWIDTH 909 0
DWIDTH 10 0
BBX 9 11 0 0
BITMAP
3E00
6100
C080
C080
C080
C080
C080
C080
C280
6100
3E80
ENDCHAR
STARTCHAR R
ENCODING 82
SWIDTH 818 0
DWIDTH 9 0
BBX 8 11 0 0
BITMAP
FC
C2
C1
C1
C1
C2
FC
C2
C2
C1
C1
ENDCHAR
STARTCHAR S
ENCODING 83
SWIDTH 818 0
DWIDTH 9 0
BBX 8 11 0 0
BITMAP
7E
C3
C0
C0
60
3C
06
03
03
C3
7E
ENDCHAR
STARTCHAR T
ENCODING 84
SWIDTH 818 0
DWIDTH 9 0
BBX 8 11 0 0
BITMAP
FF
18
18
18
18
18
18
18
18
18
18
ENDCHAR
STARTCHAR U
ENCODING 85
SWIDTH 818 0
DWIDTH 9 0
BBX 8 11 0 0
BITMAP
83
83
83
83
83
83
83
83
83
47
3B
ENDCHAR
STARTCHAR V
ENCODING 86
SWIDTH 818 0
DWIDTH 9 0
BBX 8 11 0 0
BITMAP
C1
C1
C1
C1
62
62
62
34
34
18
18
ENDCHAR
STARTCHAR W
ENCODING 87
SWIDTH 1363 0
DWIDTH 15 0
BBX 14 11 0 0
BITMAP
C004
C004
C104
C104
6108
6288
6288
3450
3450
1820
1820
ENDCHAR
STARTCHAR X
ENCODING 88
SWIDTH 909 0
DWIDTH 10 0
BBX 9 11 0 0
BITMAP
C080
C080
6100
6100
3200
1C00
3200
6100
6100
C080
C080
ENDCHAR
STARTCHAR Y
ENCODING 89
SWIDTH 1000 0
DWIDTH 11 0
BBX 10 11 0 0
BITMAP
C040
C040
6080
6080
3100
1A00
0C00
0C00
0C00
0C00
0C00
ENDCHAR
STARTCHAR Z
ENCODING 90
SWIDTH 818 0
DWIDTH 9 0
BBX 8 11 0 0
BITMAP
FF
83
03
07
0E
1C
38
70
E0
C1
FF
ENDCHAR
STARTCHAR bracketleft
ENCODING 91
SWIDTH 454 0
DWIDTH 5 0
BBX 4 15 0 -2
BITMAP
F0
C0
C0
C0
C0
C0
C0
C0
C0
C0
C0
C0
C0
C0
F0
ENDCHAR
STARTCHAR backslash
ENCODING 92
SWIDTH 636 0
DWIDTH 7 0
BBX 6 11 0 0
BITMAP
C0
C0
E0
60
70
30
38
18
1C
0C
0C
ENDCHAR
STARTCHAR bracketright
ENCODING 93
SWIDTH 454 0
DWIDTH 5 0
BBX 4 15 0 -2
BITMAP
F0
30
30
30
30
30
30
30
30
30
30
30
30
30
F0
ENDCHAR
STARTCHAR asciicircum
ENCODING 94
SWIDTH 636 0
DWIDTH 7 0
BBX 6 3 0 8
BITMAP
30
78
EC
ENDCHAR
STARTCHAR underscore
ENCODING 95
SWIDTH 1181 0
DWIDTH 13 0
BBX 12 1 0 -1
BITMAP
FFF0
ENDCHAR
STARTCHAR grave
ENCODING 96
SWIDTH 363 0
DWIDTH 4 0
BBX 3 3 0 8
BITMAP
C0
C0
60
ENDCHAR
STARTCHAR a
ENCODING 97
SWIDTH 727 0
DWIDTH 8 0
BBX 7 9 0 0
BITMAP
3C
06
3E
46
86
86
86
46
3E
ENDCHAR
STARTCHAR b
ENCODING 98
SWIDTH 727 0
DWIDTH 8 0
BBX 7 11 0 0
BITMAP
C0
C0
F8
C4
C2
C2
C2
C2
C2
C4
F8
ENDCHAR
STARTCHAR c
ENCODING 99
SWIDTH 727 0
DWIDTH 8 0
BBX 7 9 0 0
BITMAP
3C
60
C0
C0
C0
C0
C0
66
3C
ENDCHAR
STARTCHAR d
ENCODING 100
SWIDTH 727 0
DWIDTH 8 0
BBX 7 11 0 0
BITMAP
06
06
3E
46
86
86
86
86
86
46
3E
ENDCHAR
STARTCHAR e
ENCODING 101
SWIDTH 727 0
DWIDTH 8 0
BBX 7 9 0 0
BITMAP
3C
62
C2
C2
FE
C0
C0
66
3C
ENDCHAR
STARTCHAR f
ENCODING 102
SWIDTH 636 0
DWIDTH 7 0
BBX 6 11 0 0
BITMAP
78
CC
C0
C0
C0
F8
C0
C0
C0
C0
C0
ENDCHAR
STARTCHAR g
ENCODING 103
SWIDTH 727 0
DWIDTH 8 0
BBX 7 11 0 -2
BITMAP
3C
46
86
86
86
86
86
46
3E
06
7C
ENDCHAR
STARTCHAR h
ENCODING 104
SWIDTH 727 0
DWIDTH 8 0
BBX 7 11 0 0
BITMAP
C0
C0
F8
C4
C2
C2
C2
C2
C2
C2
C2
ENDCHAR
STARTCHAR i
ENCODING 105
SWIDTH 272 0
DWIDTH 3 0
BBX 2 11 0 0
BITMAP
C0
00
C0
C0
C0
C0
C0
C0
C0
C0
C0
ENDCHAR
STARTCHAR j
ENCODING 106
SWIDTH 636 0
DWIDTH 7 0
BBX 6 13 0 -2
BITMAP
0C
00
0C
0C
0C
0C
0C
0C
0C
0C
0C
CC
78
ENDCHAR
STARTCHAR k
ENCODING 107
SWIDTH 727 0
DWIDTH 8 0
BBX 7 11 0 0
BITMAP
C0
C0
C2
C2
C4
F8
C4
C2
C2
C2
C2
ENDCHAR
STARTCHAR l
ENCODING 108
SWIDTH 454 0
DWIDTH 5 0
BBX 4 11 0 0
BITMAP
C0
C0
C0
C0
C0
C0
C0
C0
C0
C0
70
ENDCHAR
STARTCHAR m
ENCODING 109
SWIDTH 1181 0
DWIDTH 13 0
BBX 12 9 0 0
BITMAP
D8C0
E520
C210
C210
C210
C210
C210
C010
C010
ENDCHAR
STARTCHAR n
ENCODING 110
SWIDTH 727 0
DWIDTH 8 0
BBX 7 9 0 0
BITMAP
D8
E4
C2
C2
C2
C2
C2
C2
C2
ENDCHAR
STARTCHAR o
ENCODING 111
SWIDTH 727 0
DWIDTH 8 0
BBX 7 9 0 0
BITMAP
38
64
C2
C2
C2
C2
C2
64
38
ENDCHAR
STARTCHAR p
ENCODING 112
SWIDTH 727 0
DWIDTH 8 0
BBX 7 11 0 -2
BITMAP
F8
C4
C2
C2
C2
C2
C2
E4
D8
C0
C0
ENDCHAR
STARTCHAR q
ENCODING 113
SWIDTH 727 0
DWIDTH 8 0
BBX 7 11 0 -2
BITMAP
3E
46
86
86
86
86
86
4E
36
06
06
ENDCHAR
STARTCHAR r
ENCODING 114
SWIDTH 727 0
DWIDTH 8 0
BBX 7 9 0 0
BITMAP
7C
C6
C0
C0
C0
C0
C0
C0
C0
ENDCHAR
STARTCHAR s
ENCODING 115
SWIDTH 727 0
DWIDTH 8 0
BBX 7 9 0 0
BITMAP
7C
C6
C0
C0
7C
06
06
C6
7C
ENDCHAR
STARTCHAR t
ENCODING 116
SWIDTH 636 0
DWIDTH 7 0
BBX 6 11 0 0
BITMAP
C0
C0
F8
C0
C0
C0
C0
C0
C0
CC
78
ENDCHAR
STARTCHAR u
ENCODING 117
SWIDTH 727 0
DWIDTH 8 0
BBX 7 9 0 0
BITMAP
86
86
86
86
86
86
86
4E
36
ENDCHAR
STARTCHAR v
ENCODING 118
SWIDTH 818 0
DWIDTH 9 0
BBX 8 9 0 0
BITMAP
C1
C1
C1
62
62
34
34
18
18
ENDCHAR
STARTCHAR w
ENCODING 119
SWIDTH 1181 0
DWIDTH 13 0
BBX 12 9 0 0
BITMAP
C010
C010
C210
C210
C210
C210
C210
6520
38C0
ENDCHAR
STARTCHAR x
ENCODING 120
SWIDTH 818 0
DWIDTH 9 0
BBX 8 9 0 0
BITMAP
C1
C1
62
62
3C
62
62
C1
C1
ENDCHAR
STARTCHAR y
ENCODING 121
SWIDTH 727 0
DWIDTH 8 0
BBX 7 11 0 -2
BITMAP
86
86
86
86
86
86
86
4E
36
06
7C
ENDCHAR
STARTCHAR z
ENCODING 122
SWIDTH 727 0
DWIDTH 8 0
BBX 7 9 0 0
BITMAP
FE
86
0E
1C
38
70
E0
C2
FE
ENDCHAR
STARTCHAR braceleft
ENCODING 123
SWIDTH 545 0
DWIDTH 6 0
BBX 5 15 0 -2
BITMAP
38
60
60
60
60
60
60
C0
60
60
60
60
60
60
38
ENDCHAR
STARTCHAR bar
ENCODING 124
SWIDTH 272 0
DWIDTH 3 0
BBX 2 13 0 -2
BITMAP
C0
C0
C0
C0
C0
C0
C0
C0
C0
C0
C0
C0
C0
ENDCHAR
STARTCHAR braceright
ENCODING 125
SWIDTH 545 0
DWIDTH 6 0
BBX 5 15 0 -2
BITMAP
E0
30
30
30
30
30
30
18
30
30
30
30
30
30
E0
ENDCHAR
STARTCHAR asciitilde
ENCODING 126
SWIDTH 727 0
DWIDTH 8 0
BBX 7 3 0 8
BITMAP
66
D6
CC
ENDCHAR
STARTCHAR exclamdown
ENCODING 161
SWIDTH 272 0
DWIDTH 3 0
BBX 2 11 0 0
BITMAP
C0
C0
00
C0
C0
C0
C0
C0
C0
C0
C0
ENDCHAR
STARTCHAR questiondown
ENCODING 191
SWIDTH 727 0
DWIDTH 8 0
BBX 7 11 0 0
BITMAP
0C
0C
00
0C
38
60
C0
C0
C0
66
3C
ENDCHAR
STARTCHAR Agrave
ENCODING 192
SWIDTH 818 0
DWIDTH 9 0
BBX 8 15 0 0
BITMAP
18
18
0C
00
18
34
62
62
C1
C1
FF
C1
C1
C1
C1
ENDCHAR
STARTCHAR Aacute
ENCODING 193
SWIDTH 818 0
DWIDTH 9 0
BBX 8 15 0 0
BITMAP
18
18
30
00
18
34
62
62
C1
C1
FF
C1
C1
C1
C1
ENDCHAR
STARTCHAR Acircumflex
ENCODING 194
SWIDTH 818 0
DWIDTH 9 0
BBX 8 15 0 0
BITMAP
18
34
62
00
18
34
62
62
C1
C1
FF
C1
C1
C1
C1
ENDCHAR
STARTCHAR Atilde
ENCODING 195
SWIDTH 818 0
DWIDTH 9 0
BBX 8 15 0 0
BITMAP
32
6A
64
00
18
34
62
62
C1
C1
FF
C1
C1
C1
C1
ENDCHAR
STARTCHAR Adieresis
ENCODING 196
SWIDTH 818 0
DWIDTH 9 0
BBX 8 14 0 0
BITMAP
C1
C1
00
18
34
62
62
C1
C1
FF
C1
C1
C1
C1
ENDCHAR
STARTCHAR Aring
ENCODING 197
SWIDTH 818 0
DWIDTH 9 0
BBX 8 15 0 0
BITMAP
3C
62
62
62
3C
34
62
62
C1
C1
FF
C1
C1
C1
C1
ENDCHAR
STARTCHAR AE
ENCODING 198
SWIDTH 1090 0
DWIDTH 12 0
BBX 11 11 0 0
BITMAP
1FE0
3400
6400
6400
C400
C780
FC00
C400
C400
C400
C7E0
ENDCHAR
STARTCHAR Ccedilla
ENCODING 199
SWIDTH 909 0
DWIDTH 10 0
BBX 9 13 0 -2
BITMAP
3F00
6180
C000
C000
C000
C000
C000
C000
C000
6180
3F00
0C00
1800
ENDCHAR
STARTCHAR Egrave
ENCODING 200
SWIDTH 818 0
DWIDTH 9 0
BBX 8 15 0 0
BITMAP
18
18
0C
00
FF
C0
C0
C0
C0
FC
C0
C0
C0
C0
FF
ENDCHAR
STARTCHAR Eacute
ENCODING 201
SWIDTH 818 0
DWIDTH 9 0
BBX 8 15 0 0
BITMAP
18
18
30
00
FF
C0
C0
C0
C0
FC
C0
C0
C0
C0
FF
ENDCHAR
STARTCHAR Ecircumflex
ENCODING 202
SWIDTH 818 0
DWIDTH 9 0
BBX 8 15 0 0
BITMAP
18
34
62
00
FF
C0
C0
C0
C0
FC
C0
C0
C0
C0
FF
ENDCHAR
STARTCHAR Edieresis
ENCODING 203
SWIDTH 818 0
DWIDTH 9 0
BBX 8 14 0 0
BITMAP
C1
C1
00
FF
C0
C0
C0
C0
FC
C0
C0
C0
C0
FF
ENDCHAR
STARTCHAR Igrave
ENCODING 204
SWIDTH 636 0
DWIDTH 7 0
BBX 6 15 0 0
BITMAP
30
30
18
00
FC
30
30
30
30
30
30
30
30
30
FC
ENDCHAR
STARTCHAR Iacute
ENCODING 205
SWIDTH 636 0
DWIDTH 7 0
BBX 6 15 0 0
BITMAP
30
30
60
00
FC
30
30
30
30
30
30
30
30
30
FC
ENDCHAR
STARTCHAR Icircumflex
ENCODING 206
SWIDTH 636 0
DWIDTH 7 0
BBX 6 15 0 0
BITMAP
30
68
C4
00
FC
30
30
30
30
30
30
30
30
30
FC
ENDCHAR
STARTCHAR Idieresis
ENCODING 207
SWIDTH 636 0
DWIDTH 7 0
BBX 6 14 0 0
BITMAP
C4
C4
00
FC
30
30
30
30
30
30
30
30
30
FC
ENDCHAR
STARTCHAR Eth
ENCODING 208
SWIDTH 909 0
DWIDTH 10 0
BBX 9 11 0 0
BITMAP
7E00
6100
6080
6080
6080
FE80
6080
6080
6080
6100
7E00
ENDCHAR
STARTCHAR Ntilde
ENCODING 209
SWIDTH 818 0
DWIDTH 9 0
BBX 8 15 0 0
BITMAP
32
6A
64
00
DC
E2
C1
C1
C1
C1
C1
C1
C1
C1
C1
ENDCHAR
STARTCHAR Ograve
ENCODING 210
SWIDTH 909 0
DWIDTH 10 0
BBX 9 15 0 0
BITMAP
1800
1800
0C00
0000
3E00
6100
C080
C080
C080
C080
C080
C080
C080
6100
3E00
ENDCHAR
STARTCHAR Oacute
ENCODING 211
SWIDTH 909 0
DWIDTH 10 0
BBX 9 15 0 0
BITMAP
0C00
0C00
1800
0000
3E00
6100
C080
C080
C080
C080
C080
C080
C080
6100
3E00
ENDCHAR
STARTCHAR Ocircumflex
ENCODING 212
SWIDTH 909 0
DWIDTH 10 0
BBX 9 15 0 0
BITMAP
0C00
1A00
3100
0000
3E00
6100
C080
C080
C080
C080
C080
C080
C080
6100
3E00
ENDCHAR
STARTCHAR Otilde
ENCODING 213
SWIDTH 909 0
DWIDTH 10 0
BBX 9 15 0 0
BITMAP
1900
3500
3200
0000
3E00
6100
C080
C080
C080
C080
C080
C080
C080
6100
3E00
ENDCHAR
STARTCHAR Odieresis
ENCODING 214
SWIDTH 909 0
DWIDTH 10 0
BBX 9 14 0 0
BITMAP
C080
C080
0000
3E00
6100
C080
C080
C080
C080
C080
C080
C080
6100
3E00
ENDCHAR
STARTCHAR Ugrave
ENCODING 217
SWIDTH 818 0
DWIDTH 9 0
BBX 8 15 0 0
BITMAP
18
18
0C
00
83
83
83
83
83
83
83
83
83
47
3B
ENDCHAR
STARTCHAR Uacute
ENCODING 218
SWIDTH 818 0
DWIDTH 9 0
BBX 8 15 0 0
BITMAP
18
18
30
00
83
83
83
83
83
83
83
83
83
47
3B
ENDCHAR
STARTCHAR Ucircumflex
ENCODING 219
SWIDTH 818 0
DWIDTH 9 0
BBX 8 15 0 0
BITMAP
18
34
62
00
83
83
83
83
83
83
83
83
83
47
3B
ENDCHAR
STARTCHAR Udieresis
ENCODING 220
SWIDTH 818 0
DWIDTH 9 0
BBX 8 14 0 0
BITMAP
C1
C1
00
83
83
83
83
83
83
83
83
83
47
3B
ENDCHAR
STARTCHAR Yacute
ENCODING 221
SWIDTH 1000 0
DWIDTH 11 0
BBX 10 15 0 0
BITMAP
0C00
0C00
1800
0000
C040
C040
6080
6080
3100
1A00
0C00
0C00
0C00
0C00
0C00
ENDCHAR
STARTCHAR Thorn
ENCODING 222
SWIDTH 727 0
DWIDTH 8 0
BBX 7 11 0 0
BITMAP
C0
F8
C4
C2
C2
C2
C2
C2
C4
F8
C0
ENDCHAR
STARTCHAR germandbls
ENCODING 223
SWIDTH 818 0
DWIDTH 9 0
BBX 8 11 0 0
BITMAP
7C
C2
C2
C2
DC
C2
C1
C1
C1
C2
DC
ENDCHAR
STARTCHAR agrave
ENCODING 224
SWIDTH 727 0
DWIDTH 8 0
BBX 7 13 0 0
BITMAP
18
18
0C
00
3C
06
3E
46
86
86
86
46
3E
ENDCHAR
STARTCHAR aacute
ENCODING 225
SWIDTH 727 0
DWIDTH 8 0
BBX 7 13 0 0
BITMAP
18
18
30
00
3C
06
3E
46
86
86
86
46
3E
ENDCHAR
STARTCHAR acircumflex
ENCODING 226
SWIDTH 727 0
DWIDTH 8 0
BBX 7 13 0 0
BITMAP
18
34
62
00
3C
06
3E
46
86
86
86
46
3E
ENDCHAR
STARTCHAR atilde
ENCODING 227
SWIDTH 727 0
DWIDTH 8 0
BBX 7 13 0 0
BITMAP
64
D4
C8
00
3C
06
3E
46
86
86
86
46
3E
ENDCHAR
STARTCHAR adieresis
ENCODING 228
SWIDTH 727 0
DWIDTH 8 0
BBX 7 12 0 0
BITMAP
C2
C2
00
3C
06
3E
46
86
86
86
46
3E
ENDCHAR
STARTCHAR aring
ENCODING 229
SWIDTH 727 0
DWIDTH 8 0
BBX 7 13 0 0
BITMAP
3C
62
62
62
3C
06
3E
46
86
86
86
46
3E
ENDCHAR
STARTCHAR ae
ENCODING 230
SWIDTH 1000 0
DWIDTH 11 0
BBX 10 9 0 0
BITMAP
7F80
0C40
3C40
4C40
8FC0
8C00
8C00
4C40
3F80
ENDCHAR
STARTCHAR ccedilla
ENCODING 231
SWIDTH 727 0
DWIDTH 8 0
BBX 7 11 0 -2
BITMAP
3C
60
C0
C0
C0
C0
C0
66
3C
18
30
ENDCHAR
STARTCHAR egrave
ENCODING 232
SWIDTH 727 0
DWIDTH 8 0
BBX 7 13 0 0
BITMAP
30
30
18
00
3C
62
C2
C2
FE
C0
C0
66
3C
ENDCHAR
STARTCHAR eacute
ENCODING 233
SWIDTH 727 0
DWIDTH 8 0
BBX 7 13 0 0
BITMAP
18
18
30
00
3C
62
C2
C2
FE
C0
C0
66
3C
ENDCHAR
STARTCHAR ecircumflex
ENCODING 234
SWIDTH 727 0
DWIDTH 8 0
BBX 7 13 0 0
BITMAP
18
34
62
00
3C
62
C2
C2
FE
C0
C0
66
3C
ENDCHAR
STARTCHAR edieresis
ENCODING 235
SWIDTH 727 0
DWIDTH 8 0
BBX 7 12 0 0
BITMAP
C2
C2
00
3C
62
C2
C2
FE
C0
C0
66
3C
ENDCHAR
STARTCHAR igrave
ENCODING 236
SWIDTH 363 0
DWIDTH 4 0
BBX 3 13 0 0
BITMAP
C0
C0
60
00
C0
C0
C0
C0
C0
C0
C0
C0
C0
ENDCHAR
STARTCHAR iacute
ENCODING 237
SWIDTH 363 0
DWIDTH 4 0
BBX 3 13 0 0
BITMAP
60
60
C0
00
60
60
60
60
60
60
60
60
60
ENDCHAR
STARTCHAR icircumflex
ENCODING 238
SWIDTH 636 0
DWIDTH 7 0
BBX 6 13 0 0
BITMAP
30
68
C4
00
30
30
30
30
30
30
30
30
30
ENDCHAR
STARTCHAR idieresis
ENCODING 239
SWIDTH 636 0
DWIDTH 7 0
BBX 6 12 0 0
BITMAP
C4
C4
00
30
30
30
30
30
30
30
30
30
ENDCHAR
STARTCHAR eth
ENCODING 240
SWIDTH 909 0
DWIDTH 10 0
BBX 9 11 0 0
BITMAP
1E00
0780
3E00
4600
8600
8600
8600
8600
8600
4600
3C00
ENDCHAR
STARTCHAR ntilde
ENCODING 241
SWIDTH 727 0
DWIDTH 8 0
BBX 7 13 0 0
BITMAP
32
6A
64
00
D8
E4
C2
C2
C2
C2
C2
C2
C2
ENDCHAR
STARTCHAR ograve
ENCODING 242
SWIDTH 727 0
DWIDTH 8 0
BBX 7 13 0 0
BITMAP
30
30
18
00
38
64
C2
C2
C2
C2
C2
64
38
ENDCHAR
STARTCHAR oacute
ENCODING 243
SWIDTH 727 0
DWIDTH 8 0
BBX 7 13 0 0
BITMAP
18
18
30
00
38
64
C2
C2
C2
C2
C2
64
38
ENDCHAR
STARTCHAR ocircumflex
ENCODING 244
SWIDTH 727 0
DWIDTH 8 0
BBX 7 13 0 0
BITMAP
18
34
62
00
38
64
C2
C2
C2
C2
C2
64
38
ENDCHAR
STARTCHAR otilde
ENCODING 245
SWIDTH 727 0
DWIDTH 8 0
BBX 7 13 0 0
BITMAP
32
6A
64
00
38
64
C2
C2
C2
C2
C2
64
38
ENDCHAR
STARTCHAR odieresis
ENCODING 246
SWIDTH 727 0
DWIDTH 8 0
BBX 7 12 0 0
BITMAP
C2
C2
00
38
64
C2
C2
C2
C2
C2
64
38
ENDCHAR
STARTCHAR ugrave
ENCODING 249
SWIDTH 727 0
DWIDTH 8 0
BBX 7 13 0 0
BITMAP
30
30
18
00
86
86
86
86
86
86
86
4E
36
ENDCHAR
STARTCHAR uacute
ENCODING 250
SWIDTH 727 0
DWIDTH 8 0
BBX 7 13 0 0
BITMAP
18
18
30
00
86
86
86
86
86
86
86
4E
36
ENDCHAR
STARTCHAR ucircumflex
ENCODING 251
SWIDTH 727 0
DWIDTH 8 0
BBX 7 13 0 0
BITMAP
18
34
62
00
86
86
86
86
86
86
86
4E
36
ENDCHAR
STARTCHAR udieresis
ENCODING 252
SWIDTH 727 0
DWIDTH 8 0
BBX 7 12 0 0
BITMAP
C2
C2
00
86
86
86
86
86
86
86
4E
36
ENDCHAR
STARTCHAR yacute
ENCODING 253
SWIDTH 727 0
DWIDTH 8 0
BBX 7 15 0 -2
BITMAP
18
18
30
00
86
86
86
86
86
86
86
4E
36
06
7C
ENDCHAR
STARTCHAR thorn
ENCODING 254
SWIDTH 727 0
DWIDTH 8 0
BBX 7 13 0 -1
BITMAP
C0
C0
C0
F8
C4
C2
C2
C2
C4
F8
C0
C0
C0
ENDCHAR
STARTCHAR ydieresis
ENCODING 255
SWIDTH 727 0
DWIDTH 8 0
BBX 7 14 0 -2
BITMAP
C2
C2
00
86
86
86
86
86
86
86
4E
36
06
7C
ENDCHAR
STARTCHAR OE
ENCODING 338
SWIDTH 1090 0
DWIDTH 12 0
BBX 11 11 0 0
BITMAP
3FE0
6400
C400
C400
C400
C780
C400
C400
C400
6400
3FE0
ENDCHAR
STARTCHAR oe
ENCODING 339
SWIDTH 1000 0
DWIDTH 11 0
BBX 10 9 0 0
BITMAP
3F80
6440
C440
C440
C7C0
C400
C400
6440
3F80
ENDCHAR
STARTCHAR Ydieresis
ENCODING 376
SWIDTH 1000 0
DWIDTH 11 0
BBX 10 14 0 0
BITMAP
C040
C040
0000
C040
C040
6080
6080
3100
1A00
0C00
0C00
0C00
0C00
0C00
ENDCHAR
STARTCHAR Ygrave
ENCODING 7922
SWIDTH 1000 0
DWIDTH 11 0
BBX 10 15 0 0
BITMAP
0C00
0C00
0600
0000
C040
C040
6080
6080
3100
1A00
0C00
0C00
0C00
0C00
0C00
ENDCHAR
STARTCHAR ygrave
ENCODING 7923
SWIDTH 727 0
DWIDTH 8 0
BBX 7 15 0 -2
BITMAP
30
30
18
00
86
86
86
86
86
86
86
4E
36
06
7C
ENDCHAR
STARTCHAR uni220E
ENCODING 8718
SWIDTH 909 0
DWIDTH 10 0
BBX 9 11 0 0
BITMAP
FF80
FF80
FF80
FF80
FF80
FF80
FF80
FF80
FF80
FF80
FF80
ENDCHAR
STARTCHAR .notdef
ENCODING -1
SWIDTH 90 0
DWIDTH 1 0
BBX 1 1 0 0
BITMAP
00
ENDCHAR
ENDFONT
